<svg width="35" height="35" viewBox="0 0 35 35" fill="none" xmlns="http://www.w3.org/2000/svg">
<circle cx="17.5" cy="17.5" r="17.5" fill="#C4C4C4"/>
<path d="M12.2936 14.25H8V28H12.2936V14.25Z" fill="white"/>
<path d="M23.9888 14.4113C23.9432 14.3963 23.9 14.38 23.852 14.3662C23.7944 14.3525 23.7368 14.3413 23.678 14.3313C23.45 14.2838 23.2004 14.25 22.9076 14.25C20.4044 14.25 18.8168 16.1463 18.2936 16.8788V14.25H14V28H18.2936V20.5C18.2936 20.5 21.5384 15.7925 22.9076 19.25C22.9076 22.3363 22.9076 28 22.9076 28H27.2V18.7212C27.2 16.6437 25.8332 14.9125 23.9888 14.4113Z" fill="white"/>
<path d="M10.1 13.2456C11.2598 13.2456 12.2 12.2952 12.2 11.1228C12.2 9.95041 11.2598 9 10.1 9C8.9402 9 8 9.95041 8 11.1228C8 12.2952 8.9402 13.2456 10.1 13.2456Z" fill="white"/>
</svg>
